# xmcd
#
# Track frame offsets:
#	150
#	12910
#	26614
#	39877
#	51293
#	65916
#	82966
#	100620
#	119580
#	133166
#	151934
#	167450
#	178905
#	190630
#	206765
#	218467
#	234900
#	251274
#	263665
#	276854
#
# Disc length: 3881 seconds
#
# Revision: 1
# Processed by: cddbd v1.5.2PL0 Copyright (c) Steve Scherf et al.
# Submitted via: audiograbber 1.83.01
#
DISCID=090f2714
DTITLE=Ray Charles - Black&Light
DYEAR=1900
DGENRE=
TTITLE0=My Heart Cries for You 
TTITLE1=Chattanooga Choo Choo 
TTITLE2=Cryin' Time 
TTITLE3=I Don't Need No Doctor 
TTITLE4=Born to Lose 
TTITLE5=If You Were Mine 
TTITLE6=Careless Love 
TTITLE7=I Can't Stop Loving You 
TTITLE8=You Are My Sunshine 
TTITLE9=Over The Rainbow 
TTITLE10=Don't Change On Me 
TTITLE11=Hallelujah I Just Love Her So 
TTITLE12=Lonely Avenue 
TTITLE13=Your Cheatin' Heart 
TTITLE14=Don't Set Me Free 
TTITLE15=Eleanor Rigby 
TTITLE16=Georgia on My Mind 
TTITLE17=Unchain My Heart 
TTITLE18=Let's Go Get Stoned 
TTITLE19=Hide 'nor Hair 
EXTD=
EXTT0=
EXTT1=
EXTT2=
EXTT3=
EXTT4=
EXTT5=
EXTT6=
EXTT7=
EXTT8=
EXTT9=
EXTT10=
EXTT11=
EXTT12=
EXTT13=
EXTT14=
EXTT15=
EXTT16=
EXTT17=
EXTT18=
EXTT19=
PLAYORDER=
